<?xml version="1.0" standalone="no"?>
<!DOCTYPE svg PUBLIC "-//W3C//DTD SVG 20010904//EN"
 "http://www.w3.org/TR/2001/REC-SVG-20010904/DTD/svg10.dtd">
<svg version="1.0" xmlns="http://www.w3.org/2000/svg"
 width="1350.000000pt" height="1100.000000pt" viewBox="0 0 1350.000000 1100.000000"
 preserveAspectRatio="xMidYMid meet">

<g transform="translate(0.000000,1100.000000) scale(0.100000,-0.100000)"
fill="#000000" stroke="none">
<path d="M2634 8260 c-79 -12 -147 -38 -216 -81 -90 -58 -2020 -1991 -2066
-2070 -99 -170 -107 -371 -21 -549 29 -60 197 -230 2373 -2408 1553 -1555
2361 -2356 2401 -2383 123 -81 287 -108 435 -70 46 11 109 36 140 53 76 45
605 570 596 593 -3 9 -2 14 2 11 4 -2 14 0 22 5 12 8 11 9 -4 7 -10 -2 -21 3
-24 11 -3 8 0 11 7 7 7 -4 9 -1 5 8 -5 12 -9 13 -19 3 -7 -7 -11 -15 -9 -19 2
-4 0 -9 -5 -13 -13 -8 -5 33 10 51 6 8 8 14 4 14 -4 0 -14 -8 -22 -17 -13 -16
-13 -16 -7 7 5 22 5 23 -7 8 -13 -15 -16 -16 -39 -2 -22 13 -22 14 -3 9 12 -3
25 -1 29 6 5 8 3 9 -6 4 -10 -6 -12 -4 -7 8 3 9 1 19 -5 23 -6 4 -8 3 -5 -3 4
-6 0 -13 -8 -17 -8 -3 -17 0 -21 6 -4 7 -3 8 4 4 7 -4 12 -3 12 3 0 5 -6 11
-12 14 -10 3 -10 8 2 23 9 12 9 15 1 7 -7 -6 -21 -9 -30 -5 -14 5 -14 4 -2
-11 12 -15 12 -17 -3 -11 -9 3 -16 9 -17 13 0 3 -2 16 -5 29 -2 14 0 21 6 17
5 -3 7 0 4 9 -5 12 -9 13 -19 3 -7 -7 -11 -15 -9 -19 2 -4 0 -9 -5 -13 -6 -3
-8 6 -5 22 4 23 3 26 -7 15 -7 -6 -17 -12 -22 -12 -5 0 -1 7 7 16 9 8 16 21
16 27 0 7 -5 4 -11 -5 -8 -14 -14 -15 -34 -6 l-24 11 21 17 c17 13 18 19 8 25
-9 5 -11 4 -6 -3 4 -7 4 -12 -1 -13 -4 0 -16 -2 -26 -4 -9 -2 -15 1 -11 6 3 5
10 7 15 4 14 -10 11 3 -8 25 -10 11 -21 20 -26 20 -5 0 -4 -7 3 -15 11 -13 10
-14 -4 -9 -9 3 -17 10 -17 15 -1 5 -3 14 -4 19 -1 6 -3 15 -4 20 0 6 -6 10
-12 10 -5 0 -8 -4 -4 -9 3 -5 1 -12 -4 -16 -6 -3 -8 6 -5 22 4 23 3 26 -7 16
-7 -7 -17 -13 -22 -13 -5 0 -1 7 7 16 9 8 16 21 16 27 0 7 -5 4 -11 -5 -8 -14
-14 -15 -34 -6 l-24 11 21 17 c17 13 18 19 8 25 -9 5 -11 4 -6 -3 15 -24 -14
-11 -30 13 -9 14 -21 25 -26 25 -6 0 -5 -7 2 -15 11 -13 10 -14 -4 -9 -9 3
-17 10 -17 15 -1 5 -3 14 -4 19 -1 6 -3 15 -4 22 0 6 -8 3 -16 -8 -13 -18 -14
-17 -9 11 4 24 3 28 -7 17 -7 -6 -17 -12 -22 -12 -5 0 -1 7 7 16 9 8 16 21 16
27 0 7 -5 4 -11 -5 -8 -14 -14 -15 -34 -6 l-24 11 21 17 c17 13 18 19 8 25 -9
5 -11 4 -6 -3 9 -16 -7 -15 -22 0 -7 7 -12 9 -12 5 0 -4 -9 -3 -20 3 -11 6
-20 16 -20 22 0 9 3 9 12 0 7 -7 15 -12 19 -12 4 0 -4 12 -19 27 -21 21 -29
25 -37 16 -7 -9 -15 -10 -25 -3 -8 5 -10 10 -5 10 6 0 3 5 -5 11 -12 8 -10 9
8 4 12 -3 22 -2 22 3 0 5 -6 9 -12 9 -19 1 -85 32 -70 33 7 0 23 -5 35 -11 20
-11 20 -10 -3 13 -14 14 -27 25 -30 25 -17 -2 -51 27 -46 38 3 8 0 17 -6 21
-7 4 -8 3 -4 -4 4 -7 2 -12 -4 -12 -6 0 -8 -5 -4 -12 5 -9 2 -9 -9 1 -9 7 -17
19 -17 25 0 6 5 4 11 -4 9 -13 10 -13 6 0 -2 9 -14 14 -28 13 l-24 -3 23 12
c12 6 22 16 22 22 0 6 -5 5 -12 -2 -15 -15 -32 -16 -23 -2 3 6 2 10 -4 10 -5
0 -11 -3 -14 -7 -2 -5 -2 -2 -1 5 2 7 -6 17 -19 22 -12 5 -16 9 -9 9 7 1 23
-4 35 -10 19 -10 18 -8 -5 15 -15 15 -30 28 -35 28 -4 0 -16 4 -25 9 -13 7
-18 6 -18 -2 0 -6 -9 0 -20 14 -11 14 -20 29 -20 34 0 4 5 1 11 -7 9 -13 10
-13 6 0 -2 9 -14 14 -28 13 l-24 -3 23 12 c12 6 22 16 22 22 0 6 -5 5 -12 -2
-14 -14 -32 -16 -24 -3 3 5 -9 16 -27 25 -17 8 -27 16 -22 16 6 0 -1 7 -15 15
-25 15 -25 15 -2 12 13 -2 28 -10 33 -18 5 -8 9 -9 9 -3 0 6 -7 17 -15 24 -8
7 -15 9 -15 6 0 -4 -9 -2 -20 4 -15 8 -20 8 -20 -1 0 -6 -9 0 -20 14 -11 14
-20 29 -20 34 0 4 5 1 11 -7 9 -13 10 -13 6 0 -2 9 -13 14 -28 11 l-24 -3 21
18 c11 11 15 16 9 13 -5 -3 -20 -9 -32 -11 -16 -4 -20 -2 -16 10 4 10 2 13 -5
8 -6 -3 -13 -2 -16 3 -7 11 13 9 32 -3 7 -4 15 -6 18 -3 2 2 -10 12 -28 20
-18 9 -28 17 -23 17 6 0 -1 7 -15 15 -25 15 -25 15 -2 12 13 -2 28 -10 33 -18
5 -8 9 -9 9 -3 0 6 -7 17 -15 24 -8 7 -15 9 -15 6 0 -4 -9 -2 -20 4 -15 8 -20
8 -20 -1 0 -6 -9 0 -20 14 -11 14 -20 29 -20 34 0 4 5 1 11 -7 9 -13 10 -13 6
0 -2 9 -13 14 -28 11 l-24 -3 21 18 c11 11 15 16 9 13 -5 -3 -20 -9 -32 -11
-16 -4 -20 -2 -16 10 4 10 2 13 -5 8 -6 -3 -13 -2 -16 3 -7 11 13 9 32 -3 7
-4 15 -6 18 -3 2 2 -10 12 -28 20 -18 9 -28 17 -23 17 6 0 -1 7 -15 15 l-25
15 28 -4 c17 -3 25 -1 21 5 -3 6 -8 8 -11 5 -11 -11 -44 16 -39 30 3 8 1 12
-4 9 -5 -3 -7 -20 -5 -38 3 -18 3 -25 -1 -17 -15 39 -17 46 -18 60 -1 10 -9
14 -26 11 -25 -3 -25 -3 -4 15 11 11 15 16 9 13 -25 -15 -53 -17 -48 -3 2 7
12 10 21 7 13 -4 12 -2 -3 10 -23 19 -35 21 -35 6 0 -5 6 -7 13 -3 7 4 9 3 4
-2 -5 -5 -12 -9 -15 -9 -4 0 -12 -4 -19 -8 -8 -5 -8 1 2 20 11 21 12 29 2 35
-11 7 -2 12 16 9 5 -1 6 3 2 9 -10 16 -37 -9 -31 -27 4 -8 1 -11 -5 -7 -6 3
-9 15 -6 25 3 10 1 22 -5 25 -5 3 -7 13 -3 22 5 13 2 12 -13 -3 -11 -11 -17
-24 -14 -30 3 -5 -3 -3 -14 5 -29 22 -30 24 -12 17 10 -3 19 0 22 9 9 24 7 31
-4 14 -6 -10 -10 -11 -10 -2 0 6 -7 12 -16 12 -14 0 -13 3 3 18 10 9 14 14 8
11 -25 -15 -53 -17 -48 -3 2 7 12 10 21 7 13 -4 12 -2 -3 10 -23 19 -35 21
-35 6 0 -5 6 -7 13 -3 7 4 9 3 4 -2 -5 -5 -12 -9 -15 -9 -4 0 -14 -4 -22 -10
-12 -7 -13 -6 -4 6 19 25 23 47 10 52 -9 4 -12 -1 -9 -13 3 -10 0 -21 -6 -24
-7 -5 -8 -1 -4 10 4 12 3 15 -5 10 -9 -5 -9 -1 -2 18 6 17 6 27 -1 32 -6 3 -8
13 -4 22 5 13 2 12 -13 -3 -11 -11 -17 -24 -14 -30 3 -5 -3 -3 -14 5 -29 22
-30 24 -12 17 10 -3 19 0 22 9 9 24 7 31 -4 14 -6 -10 -10 -11 -10 -2 0 6 -8
12 -17 12 -15 0 -14 2 2 14 18 13 18 14 -7 9 -24 -5 -26 -8 -17 -27 9 -19 9
-19 -4 -3 -8 9 -13 28 -12 42 2 14 -1 25 -7 25 -6 0 -7 -8 -4 -17 4 -10 4 -14
0 -10 -4 4 -14 1 -23 -6 -14 -10 -14 -10 -5 3 19 26 23 48 10 53 -9 4 -12 -1
-9 -13 3 -10 0 -21 -6 -24 -7 -5 -8 -1 -4 10 4 12 3 15 -5 10 -9 -5 -9 -1 -2
18 6 17 6 27 -2 32 -6 4 -8 3 -5 -2 3 -6 2 -16 -4 -24 -7 -12 -9 -10 -9 8 0
12 -5 22 -11 22 -5 0 -7 -6 -3 -12 5 -8 1 -8 -12 2 -29 22 -30 24 -12 17 16
-6 35 20 23 31 -3 3 -5 0 -5 -6 0 -7 -8 -12 -17 -12 -15 0 -16 2 -3 10 12 8
10 10 -8 10 -15 0 -21 -4 -17 -12 4 -7 0 -5 -9 5 -8 11 -12 25 -10 32 6 15
-12 15 -36 1 -12 -7 -13 -6 -2 5 14 15 16 45 3 53 -5 4 -7 -2 -4 -13 3 -10 0
-22 -6 -25 -7 -5 -8 -1 -4 11 6 16 5 17 -13 3 -17 -13 -18 -13 -8 0 18 25 24
49 13 55 -5 4 -9 3 -8 -2 5 -28 -3 -32 -23 -13 -12 11 -26 20 -32 20 -5 0 -6
3 -3 6 4 4 13 1 22 -6 9 -7 18 -10 22 -6 3 3 1 6 -6 6 -8 0 -10 8 -6 23 3 12
3 17 -2 11 -4 -6 -24 -14 -43 -17 -19 -4 -30 -3 -23 1 7 5 9 13 3 21 -4 8 -6
20 -3 27 5 14 -13 14 -37 0 -12 -7 -13 -6 -2 5 17 19 15 34 -3 19 -13 -11 -14
-10 -9 6 7 18 6 18 -17 -1 l-24 -20 16 20 c23 29 30 53 17 61 -6 4 -8 3 -5 -2
3 -6 2 -16 -4 -24 -7 -12 -9 -12 -9 -1 0 8 -7 11 -19 8 -13 -3 -18 -1 -14 9 2
7 12 10 21 7 18 -7 17 -5 -12 17 -13 10 -17 10 -12 3 4 -7 2 -13 -3 -13 -6 0
-11 5 -11 11 0 6 -10 8 -22 5 -13 -3 -17 -3 -11 0 9 4 10 11 2 25 -5 11 -7 25
-3 31 4 7 3 8 -5 4 -6 -4 -14 0 -17 9 -5 12 -9 13 -20 4 -12 -10 -13 -8 -8 7
7 18 6 18 -17 -1 l-24 -20 16 20 c9 11 19 29 23 40 6 20 6 20 -9 1 -9 -12 -15
-15 -15 -7 0 8 -7 11 -19 8 -13 -3 -18 -1 -14 9 2 7 12 10 21 7 18 -7 17 -5
-12 17 -11 8 -17 10 -13 4 4 -7 0 -17 -7 -23 -12 -10 -13 -8 -9 10 5 18 3 20
-18 15 -13 -3 -18 -3 -11 0 6 3 9 10 6 16 -4 6 0 15 7 20 11 7 9 8 -5 4 -14
-5 -17 -2 -12 9 3 9 2 13 -4 10 -6 -3 -13 1 -16 10 -5 12 -9 13 -20 4 -12 -9
-13 -9 -9 4 8 20 -12 32 -30 17 -9 -7 -15 -8 -20 0 -6 9 1 14 18 11 4 0 7 4 7
10 0 6 -9 9 -19 6 -13 -3 -18 -1 -14 9 2 7 12 10 21 7 18 -7 17 -5 -12 17 -11
8 -17 10 -13 4 4 -7 0 -17 -7 -23 -12 -10 -13 -8 -9 8 3 13 1 21 -6 21 -7 0
-9 -4 -6 -10 4 -6 -1 -7 -11 -3 -10 4 -13 8 -7 10 7 3 9 11 6 19 -3 8 1 14 8
14 7 0 10 2 7 5 -9 10 -38 -7 -32 -19 3 -6 -1 -3 -10 8 -8 10 -19 16 -24 12
-5 -3 -8 4 -7 15 1 13 355 374 915 934 l914 914 -928 933 c-511 513 -1033
1037 -1160 1164 -244 245 -314 300 -420 333 -74 23 -192 32 -262 21z m1096
-4424 c0 -2 -8 -10 -17 -17 -16 -13 -17 -12 -4 4 13 16 21 21 21 13z m40 -56
l13 -25 -20 20 c-11 11 -18 24 -16 28 6 10 7 9 23 -23z m87 -95 c0 -8 -4 -12
-9 -9 -5 3 -6 10 -3 15 9 13 12 11 12 -6z m666 -620 c-7 -21 -13 -19 -13 6 0
11 4 18 10 14 5 -3 7 -12 3 -20z m154 -167 c-3 -7 -5 -2 -5 12 0 14 2 19 5 13
2 -7 2 -19 0 -25z m134 -135 c13 -17 13 -17 -6 -3 -11 8 -22 16 -24 17 -2 2 0
3 6 3 6 0 17 -8 24 -17z m425 -402 c1 -6 0 -7 -3 -1 -2 5 -9 8 -13 5 -5 -3
-11 -1 -14 4 -4 5 2 8 11 7 9 -2 18 -8 19 -15z m140 -104 c11 -11 -19 -8 -36
3 -12 8 -10 9 7 7 12 -2 26 -6 29 -10z m160 -160 c11 -11 -19 -8 -36 3 -12 8
-10 9 7 7 12 -2 26 -6 29 -10z m96 -105 c-7 -2 -9 -9 -6 -14 4 -7 2 -8 -4 -4
-6 4 -9 13 -6 21 4 8 11 12 17 8 8 -5 7 -8 -1 -11z m64 -55 c11 -11 -19 -8
-36 3 -12 8 -10 9 7 7 12 -2 26 -6 29 -10z m160 -160 c11 -11 -19 -8 -36 3
-12 8 -10 9 7 7 12 -2 26 -6 29 -10z"/>
<path d="M3587 3984 c-3 -3 1 -13 9 -22 12 -12 18 -12 27 -2 9 10 9 11 0 6 -6
-3 -16 1 -20 9 -5 9 -12 13 -16 9z"/>
<path d="M3648 3923 c7 -3 16 -2 19 1 4 3 -2 6 -13 5 -11 0 -14 -3 -6 -6z"/>
<path d="M3808 3763 c7 -3 16 -2 19 1 4 3 -2 6 -13 5 -11 0 -14 -3 -6 -6z"/>
<path d="M3968 3603 c6 -2 18 -2 25 0 6 3 1 5 -13 5 -14 0 -19 -2 -12 -5z"/>
<path d="M4128 3443 c6 -2 18 -2 25 0 6 3 1 5 -13 5 -14 0 -19 -2 -12 -5z"/>
<path d="M4994 2642 c3 -5 1 -12 -6 -14 -8 -3 -9 -6 -1 -11 6 -4 13 0 17 8 3
8 0 17 -6 21 -6 4 -8 3 -4 -4z"/>
<path d="M5154 2482 c3 -5 1 -12 -6 -14 -8 -3 -9 -6 -1 -11 6 -4 13 0 17 8 3
8 0 17 -6 21 -6 4 -8 3 -4 -4z"/>
<path d="M5314 2322 c3 -5 1 -12 -6 -14 -8 -3 -9 -6 -1 -11 6 -4 13 0 17 8 3
8 0 17 -6 21 -6 4 -8 3 -4 -4z"/>
<path d="M5722 1921 c-11 -7 -11 -9 0 -14 9 -3 15 1 15 9 0 8 -1 14 -1 14 -1
0 -7 -4 -14 -9z"/>
<path d="M5805 1840 c-3 -6 1 -7 9 -4 18 7 21 14 7 14 -6 0 -13 -4 -16 -10z"/>
<path d="M5882 1761 c-11 -7 -11 -9 0 -14 9 -3 15 1 15 9 0 8 -1 14 -1 14 -1
0 -7 -4 -14 -9z"/>
<path d="M5965 1680 c-3 -6 1 -7 9 -4 18 7 21 14 7 14 -6 0 -13 -4 -16 -10z"/>
<path d="M6042 1601 c-11 -7 -11 -9 0 -14 9 -3 15 1 15 9 0 8 -1 14 -1 14 -1
0 -7 -4 -14 -9z"/>
<path d="M6125 1520 c-3 -6 1 -7 9 -4 18 7 21 14 7 14 -6 0 -13 -4 -16 -10z"/>
</g>
</svg>
